<svg xmlns="http://www.w3.org/2000/svg" xmlns:xlink="http://www.w3.org/1999/xlink" width="0" height="0" style="position:absolute">
	
		<symbol id="facebook" viewBox="0 0 16.36 16.4">
			<title>facebook</title><path d="M14.35 0H2.05A2.07 2.07 0 0 0 0 2.05v12.3a2.07 2.07 0 0 0 2.05 2h6.22v-5.83h-2V8h2V6.67a3.4 3.4 0 0 1 3.28-3.52h1.86V6h-1.62c-.42 0-.55.24-.55.58V8h2.17v2.56H11.2v5.84h3.11a2.07 2.07 0 0 0 2-2V2.05A2.07 2.07 0 0 0 14.35 0z"></path>
		</symbol>
	
		<symbol id="instagram" viewBox="0 0 345.4 345.4">
			<title>instagram</title><path d="M277.1 172.7a88.8 88.8 0 0 0-2.4-20.4h70.6v138.9c0 14.9-4.7 27.5-15.7 38.5a51.64 51.64 0 0 1-37.7 15.7H53.4a51.64 51.64 0 0 1-37.7-15.7C4.7 318.7 0 306.2 0 291.2V152.3h69.9c-.8 8.6-1.6 15.7-1.6 20.4 0 28.3 10.2 52.6 30.6 73.8 20.4 20.4 44.7 30.6 73.8 30.6 28.3 0 52.6-10.2 73.8-30.6 20.4-21.2 30.6-45.5 30.6-73.8M292 0c14.9 0 27.5 4.7 37.7 15.7 11 10.2 15.7 22.8 15.7 37.7v58.9h-87.1c-21.2-29-49.5-44-85.6-44-36.9 0-65.2 14.9-85.6 44H0V53.4c0-14.9 4.7-27.5 15.7-37.7C25.9 4.7 38.5 0 53.4 0H292m25.1 66.7v-29c0-6.3-3.1-9.4-9.4-9.4h-29c-6.3 0-9.4 3.1-9.4 9.4v29c0 2.4.8 3.9 2.4 6.3a9.44 9.44 0 0 0 7.1 3.1h29c6.2 0 9.3-3.1 9.3-9.4m-80 106c0 18.1-6.3 33-18.8 45.5S190.8 237 172.8 237s-33-6.3-45.5-18.8-18.8-27.5-18.8-45.5 6.3-33.8 18.8-45.5c12.6-12.6 27.5-18.8 45.5-18.8s33 6.3 45.5 18.8c12.5 11.7 18.8 27.4 18.8 45.5"></path>
		</symbol>
	
		<symbol id="twitter" viewBox="0 0 18.9 15.33">
			<title>twitter</title><path d="M18.9 1.8a7.54 7.54 0 0 1-2.23.61 3.85 3.85 0 0 0 1.7-2.14 7.74 7.74 0 0 1-2.46.94 3.88 3.88 0 0 0-6.6 3.53 11 11 0 0 1-8-4 3.88 3.88 0 0 0 1.2 5.17 3.86 3.86 0 0 1-1.75-.48 3.87 3.87 0 0 0 3.11 3.8 3.83 3.83 0 0 1-1.75.07A3.87 3.87 0 0 0 5.74 12 7.8 7.8 0 0 1 0 13.59a11 11 0 0 0 17-9.26v-.5a7.81 7.81 0 0 0 1.9-2.03z"></path>
		</symbol>
	
</svg>
