<?xml version="1.0" encoding="utf-8"?>
<!-- Generator: Adobe Illustrator 23.0.6, SVG Export Plug-In . SVG Version: 6.00 Build 0)  -->
<svg version="1.1" id="Layer_1" xmlns="http://www.w3.org/2000/svg" xmlns:xlink="http://www.w3.org/1999/xlink" x="0px" y="0px"
	 viewBox="0 0 16.4 16.4" style="enable-background:new 0 0 16.4 16.4;" xml:space="preserve">
<title>facebook</title>
<path d="M14.3,0H2C0.9,0,0,0.9,0,2v12.3c0,1.1,0.9,2,2,2.1h6.2v-5.9h-2V8h2V6.7c-0.1-1.9,1.4-3.5,3.3-3.5c0,0,0,0,0.1,0h1.8V6h-1.6
	c-0.4,0-0.6,0.2-0.6,0.6V8h2.2v2.6h-2.2v5.9h3.1c1.1,0,2-0.9,2.1-2.1V2C16.4,0.9,15.5,0,14.3,0z"/>
</svg>
