<?xml version="1.0" encoding="utf-8"?>
<!-- Generator: Adobe Illustrator 23.0.6, SVG Export Plug-In . SVG Version: 6.00 Build 0)  -->
<svg version="1.1" id="Layer_1" xmlns="http://www.w3.org/2000/svg" xmlns:xlink="http://www.w3.org/1999/xlink" x="0px" y="0px"
	 viewBox="0 0 345.4 345.4" style="enable-background:new 0 0 345.4 345.4;" xml:space="preserve">
<path d="M277.1,172.7c0-7.1-0.8-13.3-2.4-20.4h70.6v138.9c0,14.9-4.7,27.5-15.7,38.5c-10.2,10.2-22.8,15.7-37.7,15.7H53.4
	c-14.9,0-27.5-5.5-37.7-15.7C4.7,318.7,0,306.2,0,291.2V152.3h69.9c-0.8,8.6-1.6,15.7-1.6,20.4c0,28.3,10.2,52.6,30.6,73.8
	c20.4,20.4,44.7,30.6,73.8,30.6c28.3,0,52.6-10.2,73.8-30.6C266.9,225.3,277.1,201,277.1,172.7 M292,0c14.9,0,27.5,4.7,37.7,15.7
	c11,10.2,15.7,22.8,15.7,37.7v58.9h-87.1c-21.2-29-49.5-44-85.6-44c-36.9,0-65.2,14.9-85.6,44H0V53.4c0-14.9,4.7-27.5,15.7-37.7
	C25.9,4.7,38.5,0,53.4,0L292,0 M317.1,66.7v-29c0-6.3-3.1-9.4-9.4-9.4h-29c-6.3,0-9.4,3.1-9.4,9.4v29c0,2.4,0.8,3.9,2.4,6.3
	c2.4,2.4,4.7,3.1,7.1,3.1h29C314,76.1,317.1,73,317.1,66.7 M237.1,172.7c0,18.1-6.3,33-18.8,45.5c-12.6,12.6-27.5,18.8-45.5,18.8
	s-33-6.3-45.5-18.8c-12.6-12.6-18.8-27.5-18.8-45.5s6.3-33.8,18.8-45.5c12.6-12.6,27.5-18.8,45.5-18.8s33,6.3,45.5,18.8
	C230.8,138.9,237.1,154.6,237.1,172.7"/>
</svg>
