<?xml version="1.0" encoding="utf-8"?>
<!-- Generator: Adobe Illustrator 23.0.6, SVG Export Plug-In . SVG Version: 6.00 Build 0)  -->
<svg version="1.1" id="Layer_1" xmlns="http://www.w3.org/2000/svg" xmlns:xlink="http://www.w3.org/1999/xlink" x="0px" y="0px"
	 viewBox="0 0 18.9 15.3" style="enable-background:new 0 0 18.9 15.3;" xml:space="preserve">
<title>twitter</title>
<path d="M18.9,1.8c-0.7,0.3-1.5,0.5-2.2,0.6c0.8-0.5,1.4-1.2,1.7-2.1c-0.8,0.5-1.6,0.8-2.5,0.9c-1.5-1.6-3.9-1.6-5.5-0.1
	C9.4,2,9,3.4,9.3,4.7c-3.1-0.1-6-1.6-8-4c-1,1.8-0.5,4,1.2,5.2c-0.6,0-1.2-0.2-1.8-0.5l0,0c0,1.8,1.3,3.4,3.1,3.8
	C3.3,9.4,2.7,9.4,2.1,9.3c0.5,1.6,2,2.7,3.6,2.7C4.1,13.3,2,13.8,0,13.6c1.8,1.1,3.8,1.7,6,1.7c6.1,0,11-4.9,11-11
	c0-0.2,0-0.3,0-0.5C17.7,3.3,18.4,2.6,18.9,1.8z"/>
</svg>
