<svg id="Layer_1" data-name="Layer 1" xmlns="http://www.w3.org/2000/svg" viewBox="0 0 345.4 345.4"><title>instagram</title><path d="M277.1,172.7a88.8,88.8,0,0,0-2.4-20.4h70.6V291.2c0,14.9-4.7,27.5-15.7,38.5a51.64,51.64,0,0,1-37.7,15.7H53.4a51.64,51.64,0,0,1-37.7-15.7C4.7,318.7,0,306.2,0,291.2V152.3H69.9c-.8,8.6-1.6,15.7-1.6,20.4,0,28.3,10.2,52.6,30.6,73.8,20.4,20.4,44.7,30.6,73.8,30.6,28.3,0,52.6-10.2,73.8-30.6,20.4-21.2,30.6-45.5,30.6-73.8M292,0c14.9,0,27.5,4.7,37.7,15.7,11,10.2,15.7,22.8,15.7,37.7v58.9H258.3c-21.2-29-49.5-44-85.6-44-36.9,0-65.2,14.9-85.6,44H0V53.4C0,38.5,4.7,25.9,15.7,15.7,25.9,4.7,38.5,0,53.4,0H292m25.1,66.7v-29c0-6.3-3.1-9.4-9.4-9.4h-29c-6.3,0-9.4,3.1-9.4,9.4v29c0,2.4.8,3.9,2.4,6.3a9.44,9.44,0,0,0,7.1,3.1h29c6.2,0,9.3-3.1,9.3-9.4m-80,106c0,18.1-6.3,33-18.8,45.5S190.8,237,172.8,237s-33-6.3-45.5-18.8-18.8-27.5-18.8-45.5,6.3-33.8,18.8-45.5c12.6-12.6,27.5-18.8,45.5-18.8s33,6.3,45.5,18.8c12.5,11.7,18.8,27.4,18.8,45.5"/></svg>